<svg width="215" height="40" viewBox="0 0 215 40" fill="none" xmlns="http://www.w3.org/2000/svg">
<path d="M204.368 11.0694H198.236L191.067 5.11104L183.885 11.0694H177.754L191.054 0L204.368 11.0694ZM196.565 30.3109L191.067 34.889L185.556 30.3109L182.456 32.8391L191.067 40L199.678 32.8391L196.565 30.3109ZM201.861 31.0079C201.861 31.0079 212.777 21.7834 215 20.0752C215 20.0752 207.952 14.0485 207.871 14.0485H195.083C195.083 14.0485 194.315 14.6361 193.345 15.4151L196.323 17.834L196.431 17.752H206.227L208.923 20.0478L201.686 26.0471C199.341 24.1203 196.296 21.5921 193.938 19.7198L187.2 14.0212H174.236L167 20.0478L180.22 30.9805C180.22 30.9805 187.496 25.0769 188.898 23.9563L185.933 21.5511C184.828 22.453 181.19 25.3229 180.354 26.0198L173.104 20.0068L175.894 17.6973H185.731L187.672 19.2962L188.116 19.6515C188.116 19.6515 197.926 27.6734 201.861 31.0079Z" fill="white"/>
<path d="M11.7528 36.9964C9.89377 37.0304 8.03843 36.8207 6.23577 36.3728C4.90663 36.0445 3.67089 35.4233 2.62212 34.5561C1.71204 33.7421 1.02439 32.7166 0.622196 31.5735C0.19048 30.2603 -0.0191917 28.8863 0.00153029 27.5063V11.5222C-0.0201933 10.1422 0.189502 8.76807 0.622196 7.45503C1.01698 6.30064 1.70541 5.26461 2.62212 4.4453C3.67089 3.57816 4.90663 2.95693 6.23577 2.62862C8.03717 2.17401 9.89345 1.96418 11.7528 2.00499H39.8897V8.87855H11.6976C10.5094 8.7918 9.32107 9.04614 8.27708 9.61064C7.91455 9.85063 7.62206 10.1795 7.42853 10.5647C7.235 10.9499 7.14715 11.3781 7.17367 11.8069V27.1945C7.14715 27.6233 7.235 28.0515 7.42853 28.4367C7.62206 28.8219 7.91455 29.1508 8.27708 29.3908C9.32508 29.9579 10.5186 30.2123 11.7114 30.1229L40 29.8924V36.7524L11.7528 36.9964Z" fill="white"/>
<path d="M93 37V7.00394C93 5.67683 93.5379 4.40408 94.4954 3.46567C95.4529 2.52726 96.7516 2.00007 98.1057 2.00007H131.867C132.539 1.9965 133.206 2.12329 133.829 2.37316C134.452 2.62302 135.018 2.99104 135.495 3.45605C135.972 3.92106 136.35 4.47389 136.609 5.08276C136.867 5.69163 137 6.34453 137 7.00394V37H129.957V8.8753H100.015V37H93Z" fill="white"/>
<path d="M87.0058 2.82295C86.3779 2.28524 85.5759 1.99294 84.7485 2.00022C84.19 2.00145 83.6361 2.10193 83.1129 2.29694C82.5651 2.50309 82.0741 2.83588 81.6801 3.26803L66.5004 19.7766L51.3342 3.26803C50.9155 2.84639 50.4139 2.51576 49.8609 2.29694C49.352 2.10098 48.8113 2.00039 48.2659 2.00022C47.434 1.99089 46.6271 2.28325 45.995 2.82295C45.6536 3.13272 45.3874 3.51592 45.2165 3.94355C45.0455 4.37117 44.9743 4.832 45.0082 5.29114V37H51.8479V13.6803L61.9722 24.6995L64.6756 27.6397C64.9075 27.8946 65.1902 28.0983 65.5056 28.2376C65.821 28.377 66.1622 28.449 66.5072 28.449C66.8521 28.449 67.1933 28.377 67.5087 28.2376C67.8241 28.0983 68.1069 27.8946 68.3387 27.6397L71.0422 24.6995L81.1665 13.6803V37H87.9926V5.29114C88.0248 4.83093 87.9515 4.36944 87.7782 3.94175C87.6049 3.51406 87.3361 3.13143 86.9923 2.82295" fill="white"/>
<path d="M170.943 31.8665L156.777 19.5406L177 2H168.511L162.06 7.64822L151.439 16.8723C151.166 17.1128 150.829 17.2693 150.469 17.323C150.108 17.3767 149.74 17.3253 149.409 17.175C149.077 17.0246 148.796 16.7817 148.6 16.4757C148.403 16.1696 148.3 15.8134 148.302 15.4501V2.01354H142V36.9729H148.302V24.1324C148.299 23.7731 148.399 23.4204 148.59 23.1159C148.781 22.8115 149.056 22.5679 149.382 22.4141C149.707 22.2603 150.07 22.2026 150.427 22.2479C150.785 22.2931 151.122 22.4394 151.399 22.6695L162.033 31.4466L168.824 37H169.313H169.788H176.864L171.133 32.029L170.943 31.8665Z" fill="white"/>
</svg>
